# xmcd
#
# Track frame offsets:
#	150
#	3978
#	16084
#	30853
#	44906
#	57000
#	69814
#	83887
#	97623
#	110066
#	123799
#	136579
#	150511
#	162509
#	176091
#	187336
#	199887
#	212635
#	227015
#	241670
#	255110
#	267544
#	279862
#	291138
#	302577
#
# Disc length: 4184 seconds
#
# Revision: 0
# Processed by: cddbd v1.5.1PL0 Copyright (c) Steve Scherf et al.
# Submitted via: dBpowerAMP V4.0
#
DISCID=41105619
DTITLE=Robert Johnson - Steady Rollin' Man
DYEAR=2005
DGENRE=Blues
TTITLE0=Crossroads Blues
TTITLE1=Crossroads Blues
TTITLE2=Terraplane Blues
TTITLE3=Come on in to my Kitchen
TTITLE4=Walking Blues
TTITLE5=Last Fair Deal Gone Down
TTITLE6=32-20 Blues
TTITLE7=Kindhearted Woman Blues
TTITLE8=If I had Possession Over Judgement Day
TTITLE9=Preaching Blues
TTITLE10=When You Got a Good Friend
TTITLE11=Rambling on my Mind
TTITLE12=Stones in my Passway
TTITLE13=Travelling Riverside Blues
TTITLE14=Milkcow's Calf Blues
TTITLE15=Me and the Devil Blues
TTITLE16=Hellhound on my Trail
TTITLE17=I Believe I'll Dust my Broom
TTITLE18=Sweet Home Chicago
TTITLE19=Phonograph Blues
TTITLE20=Love in Vain
TTITLE21=I'm a Steady Rollin' Man
TTITLE22=From Four Till Late
TTITLE23=Drunken Hearted Man
TTITLE24=Stop Breaking Down
EXTD=
EXTT0=
EXTT1=
EXTT2=
EXTT3=
EXTT4=
EXTT5=
EXTT6=
EXTT7=
EXTT8=
EXTT9=
EXTT10=
EXTT11=
EXTT12=
EXTT13=
EXTT14=
EXTT15=
EXTT16=
EXTT17=
EXTT18=
EXTT19=
EXTT20=
EXTT21=
EXTT22=
EXTT23=
EXTT24=
PLAYORDER=
